<svg width="48" height="56" viewBox="0 0 48 56" fill="none" xmlns="http://www.w3.org/2000/svg">
<path d="M0 15.5792C0 9.35769 3.83632 3.74813 9.87831 2.26425C19.9862 -0.218203 35.2427 -2.26324 42.753 5.24707C49.0925 11.5867 48.6236 23.4456 46.8302 33.0683C45.1204 42.2426 36.587 48 27.2548 48H7.5C3.35787 48 0 44.6421 0 40.5V15.5792Z" fill="#FE705A"/>
<path d="M12.36 44.76C11.2133 44.76 10.32 44.3867 9.68 43.64C9.06667 42.92 8.64 41.9467 8.4 40.72C8.16 39.52 8.04 38.2 8.04 36.76C8.04 35.8267 8.06667 34.8133 8.12 33.72C8.2 32.6267 8.30667 31.48 8.44 30.28C7.88 30.44 7.33333 30.5867 6.8 30.72C6.26667 30.8267 5.73333 30.9067 5.2 30.96C4.85333 30.96 4.46667 30.92 4.04 30.84C3.61333 30.7333 3.25333 30.5867 2.96 30.4C2.64 30.2133 2.48 30 2.48 29.76C2.48 29.4933 2.66667 29.2533 3.04 29.04C3.30667 28.88 3.70667 28.72 4.24 28.56C4.8 28.4 5.30667 28.2667 5.76 28.16C6.21333 28.0533 6.44 28 6.44 28C6.46667 28 6.49333 28 6.52 28C6.54667 27.9733 6.56 27.96 6.56 27.96C6.58667 27.96 6.6 27.9733 6.6 28C6.62667 28 6.64 28 6.64 28C6.64 28.1067 6.49333 28.2933 6.2 28.56C5.90667 28.8267 5.76 29.0267 5.76 29.16C5.76 29.2133 5.8 29.24 5.88 29.24C5.96 29.24 6.12 29.2 6.36 29.12C6.73333 28.9867 7.10667 28.8533 7.48 28.72C7.88 28.56 8.28 28.4 8.68 28.24C8.92 26.32 9.18667 24.4 9.48 22.48C9.8 20.5333 10.1333 18.6933 10.48 16.96C10.8267 15.2 11.1467 13.68 11.44 12.4C11.2533 12.5867 11.0667 12.88 10.88 13.28C10.72 13.68 10.56 14.0533 10.4 14.4C10.24 14.7467 10.08 14.92 9.92 14.92C9.86667 14.92 9.84 14.8667 9.84 14.76C9.84 14.6533 9.92 14.3733 10.08 13.92C10.24 13.4667 10.4533 12.9467 10.72 12.36C10.9867 11.7733 11.2667 11.2 11.56 10.64C11.88 10.0533 12.1867 9.57333 12.48 9.2C12.8 8.82666 13.08 8.64 13.32 8.64C13.5867 8.64 13.8933 8.74666 14.24 8.96C14.5867 9.17333 14.8933 9.41333 15.16 9.68C15.4533 9.92 15.6 10.12 15.6 10.28C15.6 10.36 15.5867 10.4133 15.56 10.44C14.5467 12.0933 13.6 14.3067 12.72 17.08C11.84 19.8267 11.1733 23.1467 10.72 27.04C10.6933 27.12 10.68 27.2267 10.68 27.36C12.1733 26.6667 13.6933 25.8933 15.24 25.04C16.8133 24.16 18.3067 23.24 19.72 22.28C21.16 21.32 22.44 20.3467 23.56 19.36C24.7067 18.3467 25.6 17.3467 26.24 16.36C26.9067 15.3733 27.24 14.4267 27.24 13.52C27.24 12.5333 26.8133 11.6933 25.96 11C25.1067 10.3067 23.9733 9.74666 22.56 9.32C21.1467 8.86666 19.6 8.53333 17.92 8.32C16.24 8.10667 14.5733 8 12.92 8C11.5067 8 10.1733 8.05333 8.92 8.16C7.69333 8.24 6.65333 8.28 5.8 8.28C5.21333 8.28 4.92 8.18666 4.92 8C4.92 7.89333 5.06667 7.74667 5.36 7.56C6.64 6.81333 7.84 6.30666 8.96 6.04C10.08 5.77333 11.1333 5.64 12.12 5.64C13.1067 5.64 14.3067 5.74667 15.72 5.96C17.1333 6.14666 18.5867 6.44 20.08 6.84C21.6 7.24 23.0133 7.74667 24.32 8.36C25.6267 8.94667 26.6933 9.65333 27.52 10.48C28.3467 11.28 28.76 12.1867 28.76 13.2C28.76 14.4 28.3333 15.7467 27.48 17.24C26.6267 18.7067 25.3467 20.24 23.64 21.84C22.92 22.5333 21.8667 23.36 20.48 24.32C19.12 25.2533 17.5733 26.2 15.84 27.16C14.1067 28.0933 12.32 28.9067 10.48 29.6C10.4533 30.2133 10.4267 30.84 10.4 31.48C10.4 32.12 10.4 32.7467 10.4 33.36C10.4 35.8933 10.5333 37.9067 10.8 39.4C11.0667 40.92 11.44 42 11.92 42.64C12.4 43.28 12.9467 43.6 13.56 43.6C14.0133 43.6 14.3867 43.5067 14.68 43.32C15 43.16 15.24 43.08 15.4 43.08C15.5333 43.08 15.6 43.1467 15.6 43.28C15.6 43.3333 15.4933 43.48 15.28 43.72C15.0667 43.9867 14.72 44.2267 14.24 44.44C13.76 44.6533 13.1333 44.76 12.36 44.76ZM30.1084 39.92C29.9484 39.92 29.6684 39.8533 29.2684 39.72C28.8684 39.6133 28.4951 39.4533 28.1484 39.24C27.8018 39.0267 27.6018 38.7867 27.5484 38.52C27.3884 37.48 27.3084 36.16 27.3084 34.56C27.3084 33.5467 27.3351 32.44 27.3884 31.24C27.4418 30.04 27.5218 28.8267 27.6284 27.6L26.5884 27.52C26.3218 27.4933 26.0418 27.32 25.7484 27C25.4551 26.68 25.2151 26.3467 25.0284 26C24.8418 25.6267 24.7484 25.36 24.7484 25.2C24.7484 24.96 24.9084 24.76 25.2284 24.6C25.5751 24.4133 26.0018 24.2667 26.5084 24.16C27.0151 24.0267 27.4951 23.9333 27.9484 23.88C28.1618 21.7467 28.4018 19.72 28.6684 17.8C28.9618 15.8533 29.2151 14.2267 29.4284 12.92C29.1351 13.2933 28.8551 13.6133 28.5884 13.88C28.3484 14.1467 28.1884 14.28 28.1084 14.28V14.16C28.2151 13.92 28.3884 13.5067 28.6284 12.92C28.8684 12.3333 29.1351 11.7333 29.4284 11.12C29.7484 10.48 30.0551 9.93333 30.3484 9.48C30.6418 9.02667 30.8684 8.8 31.0284 8.8C31.3751 8.8 31.7751 8.97333 32.2284 9.32C32.6818 9.64 32.9084 9.97333 32.9084 10.32V10.44C32.2684 11.6133 31.7218 13.0267 31.2684 14.68C30.8418 16.3067 30.4951 18.0533 30.2284 19.92C29.9618 21.7867 29.7618 23.6667 29.6284 25.56L30.2684 25.72C31.9751 25.2667 33.6284 24.6133 35.2284 23.76C36.8551 22.9067 38.4018 21.9467 39.8684 20.88C41.3351 19.8133 42.3751 18.8133 42.9884 17.88C43.6284 16.92 43.9484 16.0267 43.9484 15.2C43.9484 14.2667 43.6151 13.4 42.9484 12.6C42.2818 11.8 41.3751 11.0933 40.2284 10.48C39.1084 9.84 37.8551 9.29333 36.4684 8.84C35.0818 8.38667 33.6551 8.02667 32.1884 7.76C30.7484 7.49333 29.3751 7.32 28.0684 7.24C27.9084 7.24 27.5884 7.24 27.1084 7.24C26.6284 7.21333 26.1084 7.2 25.5484 7.2C24.9884 7.17333 24.5084 7.13333 24.1084 7.08C23.7084 7 23.5084 6.89333 23.5084 6.76C23.5084 6.65333 23.6551 6.54666 23.9484 6.44C24.9618 6.04 25.8951 5.76 26.7484 5.6C27.6284 5.41333 28.4551 5.32 29.2284 5.32C29.7884 5.32 30.6018 5.42666 31.6684 5.64C32.7351 5.82667 33.9084 6.12 35.1884 6.52C36.4951 6.92 37.8018 7.4 39.1084 7.96C40.4418 8.52 41.6684 9.16 42.7884 9.88C43.9084 10.6 44.8018 11.3867 45.4684 12.24C46.1618 13.0933 46.5084 14 46.5084 14.96C46.5084 15.76 46.1618 16.56 45.4684 17.36C44.8018 18.1333 43.8818 19.08 42.7084 20.2C41.8551 21.0267 40.8284 21.8133 39.6284 22.56C38.4551 23.3067 37.2151 23.9867 35.9084 24.6C34.6284 25.1867 33.3751 25.7067 32.1484 26.16C34.4418 26.8 36.5884 27.5867 38.5884 28.52C40.5884 29.4267 42.5484 30.44 44.4684 31.56C44.7351 31.72 44.8684 31.8533 44.8684 31.96C44.8684 32.0667 44.8018 32.12 44.6684 32.12C44.5884 32.12 44.5218 32.0933 44.4684 32.04C43.7484 31.7733 42.6951 31.3867 41.3084 30.88C39.9484 30.3733 38.4951 29.88 36.9484 29.4C36.5484 29.2667 35.9484 29.1067 35.1484 28.92C34.3484 28.7333 33.4551 28.5467 32.4684 28.36C31.4818 28.1467 30.4951 27.9733 29.5084 27.84C29.4818 28.32 29.4684 28.8133 29.4684 29.32C29.4684 29.8 29.4684 30.2667 29.4684 30.72C29.4684 31.6 29.4818 32.4667 29.5084 33.32C29.5618 34.1467 29.6151 34.92 29.6684 35.64C29.8018 35.24 29.9218 34.8133 30.0284 34.36C30.1351 33.9067 30.2018 33.68 30.2284 33.68C30.2818 33.68 30.3084 33.8933 30.3084 34.32C30.3084 34.6667 30.2951 35.12 30.2684 35.68C30.2684 36.24 30.2551 36.8133 30.2284 37.4C30.2284 37.9867 30.2284 38.5067 30.2284 38.96C30.2284 39.1733 30.2284 39.36 30.2284 39.52C30.2284 39.7067 30.2418 39.8267 30.2684 39.88C30.2684 39.9067 30.2151 39.92 30.1084 39.92Z" fill="white"/>
</svg>
